<mxfile host="app.diagrams.net" modified="2023-12-02T20:47:38.566Z" agent="Mozilla/5.0 (Windows NT 10.0; Win64; x64; rv:120.0) Gecko/20100101 Firefox/120.0" etag="TBoaXMup8by3IZG6VI6D" version="22.1.5" type="google">
  <diagram id="C5RBs43oDa-KdzZeNtuy" name="Page-1">
    <mxGraphModel grid="1" page="1" gridSize="10" guides="1" tooltips="1" connect="1" arrows="1" fold="1" pageScale="1" pageWidth="827" pageHeight="1169" math="0" shadow="0">
      <root>
        <mxCell id="WIyWlLk6GJQsqaUBKTNV-0" />
        <mxCell id="WIyWlLk6GJQsqaUBKTNV-1" parent="WIyWlLk6GJQsqaUBKTNV-0" />
        <mxCell id="Ii6EBYF0BPZbq6cMydTG-8" value="CPR Functionality" style="text;strokeColor=none;fillColor=none;html=1;fontSize=24;fontStyle=1;verticalAlign=middle;align=center;" vertex="1" parent="WIyWlLk6GJQsqaUBKTNV-1">
          <mxGeometry x="-180" y="10" width="440" height="40" as="geometry" />
        </mxCell>
        <mxCell id="NL7zXBZEc2TmMK268k_o-0" value="Operator" style="shape=umlLifeline;perimeter=lifelinePerimeter;whiteSpace=wrap;html=1;container=0;dropTarget=0;collapsible=0;recursiveResize=0;outlineConnect=0;portConstraint=eastwest;newEdgeStyle={&quot;edgeStyle&quot;:&quot;elbowEdgeStyle&quot;,&quot;elbow&quot;:&quot;vertical&quot;,&quot;curved&quot;:0,&quot;rounded&quot;:0};" vertex="1" parent="WIyWlLk6GJQsqaUBKTNV-1">
          <mxGeometry x="-210" y="80" width="100" height="1040" as="geometry" />
        </mxCell>
        <mxCell id="NL7zXBZEc2TmMK268k_o-2" value="&lt;div&gt;AED&lt;/div&gt;" style="shape=umlLifeline;perimeter=lifelinePerimeter;whiteSpace=wrap;html=1;container=0;dropTarget=0;collapsible=0;recursiveResize=0;outlineConnect=0;portConstraint=eastwest;newEdgeStyle={&quot;edgeStyle&quot;:&quot;elbowEdgeStyle&quot;,&quot;elbow&quot;:&quot;vertical&quot;,&quot;curved&quot;:0,&quot;rounded&quot;:0};" vertex="1" parent="WIyWlLk6GJQsqaUBKTNV-1">
          <mxGeometry x="90" y="80" width="100" height="1040" as="geometry" />
        </mxCell>
        <mxCell id="NL7zXBZEc2TmMK268k_o-4" value="VoiceSystem" style="shape=umlLifeline;perimeter=lifelinePerimeter;whiteSpace=wrap;html=1;container=0;dropTarget=0;collapsible=0;recursiveResize=0;outlineConnect=0;portConstraint=eastwest;newEdgeStyle={&quot;edgeStyle&quot;:&quot;elbowEdgeStyle&quot;,&quot;elbow&quot;:&quot;vertical&quot;,&quot;curved&quot;:0,&quot;rounded&quot;:0};" vertex="1" parent="WIyWlLk6GJQsqaUBKTNV-1">
          <mxGeometry x="340" y="140" width="100" height="980" as="geometry" />
        </mxCell>
        <mxCell id="NL7zXBZEc2TmMK268k_o-7" value="MainWindow" style="shape=umlLifeline;perimeter=lifelinePerimeter;whiteSpace=wrap;html=1;container=0;dropTarget=0;collapsible=0;recursiveResize=0;outlineConnect=0;portConstraint=eastwest;newEdgeStyle={&quot;edgeStyle&quot;:&quot;elbowEdgeStyle&quot;,&quot;elbow&quot;:&quot;vertical&quot;,&quot;curved&quot;:0,&quot;rounded&quot;:0};" vertex="1" parent="WIyWlLk6GJQsqaUBKTNV-1">
          <mxGeometry x="160" y="140" width="100" height="980" as="geometry" />
        </mxCell>
        <mxCell id="NL7zXBZEc2TmMK268k_o-9" value="&lt;div&gt;MainWindow&lt;/div&gt;&lt;div&gt;.powerButton&lt;/div&gt;" style="shape=umlLifeline;perimeter=lifelinePerimeter;whiteSpace=wrap;html=1;container=0;dropTarget=0;collapsible=0;recursiveResize=0;outlineConnect=0;portConstraint=eastwest;newEdgeStyle={&quot;edgeStyle&quot;:&quot;elbowEdgeStyle&quot;,&quot;elbow&quot;:&quot;vertical&quot;,&quot;curved&quot;:0,&quot;rounded&quot;:0};" vertex="1" parent="WIyWlLk6GJQsqaUBKTNV-1">
          <mxGeometry x="-140" y="140" width="100" height="980" as="geometry" />
        </mxCell>
        <mxCell id="NL7zXBZEc2TmMK268k_o-12" value="&lt;div&gt;Mainwindow&lt;/div&gt;&lt;div&gt;.activeIndicator&lt;br&gt;&lt;/div&gt;" style="shape=umlLifeline;perimeter=lifelinePerimeter;whiteSpace=wrap;html=1;container=0;dropTarget=0;collapsible=0;recursiveResize=0;outlineConnect=0;portConstraint=eastwest;newEdgeStyle={&quot;edgeStyle&quot;:&quot;elbowEdgeStyle&quot;,&quot;elbow&quot;:&quot;vertical&quot;,&quot;curved&quot;:0,&quot;rounded&quot;:0};" vertex="1" parent="WIyWlLk6GJQsqaUBKTNV-1">
          <mxGeometry x="-60" y="80" width="100" height="1040" as="geometry" />
        </mxCell>
        <mxCell id="NL7zXBZEc2TmMK268k_o-13" value="&lt;div&gt;MainWindow&lt;/div&gt;&lt;div&gt;.batteryIndicator&lt;br&gt;&lt;/div&gt;" style="shape=umlLifeline;perimeter=lifelinePerimeter;whiteSpace=wrap;html=1;container=0;dropTarget=0;collapsible=0;recursiveResize=0;outlineConnect=0;portConstraint=eastwest;newEdgeStyle={&quot;edgeStyle&quot;:&quot;elbowEdgeStyle&quot;,&quot;elbow&quot;:&quot;vertical&quot;,&quot;curved&quot;:0,&quot;rounded&quot;:0};" vertex="1" parent="WIyWlLk6GJQsqaUBKTNV-1">
          <mxGeometry x="10" y="140" width="100" height="980" as="geometry" />
        </mxCell>
        <mxCell id="NL7zXBZEc2TmMK268k_o-24" value="&lt;div&gt;MainWindow&lt;/div&gt;&lt;div&gt;.placeElectrodesBtn&lt;br&gt;&lt;/div&gt;" style="shape=umlLifeline;perimeter=lifelinePerimeter;whiteSpace=wrap;html=1;container=0;dropTarget=0;collapsible=0;recursiveResize=0;outlineConnect=0;portConstraint=eastwest;newEdgeStyle={&quot;edgeStyle&quot;:&quot;elbowEdgeStyle&quot;,&quot;elbow&quot;:&quot;vertical&quot;,&quot;curved&quot;:0,&quot;rounded&quot;:0};" vertex="1" parent="WIyWlLk6GJQsqaUBKTNV-1">
          <mxGeometry x="240" y="80" width="120" height="1040" as="geometry" />
        </mxCell>
        <mxCell id="NL7zXBZEc2TmMK268k_o-63" value="" style="endArrow=classic;html=1;rounded=0;" edge="1" parent="WIyWlLk6GJQsqaUBKTNV-1">
          <mxGeometry width="50" height="50" relative="1" as="geometry">
            <mxPoint x="390.09000000000003" y="280" as="sourcePoint" />
            <mxPoint x="209.9135294117649" y="280" as="targetPoint" />
          </mxGeometry>
        </mxCell>
        <mxCell id="NL7zXBZEc2TmMK268k_o-64" value="&lt;div&gt;Start CPR&lt;br&gt;&lt;/div&gt;&lt;div&gt;(initiateAudioAndTextInstruction())&lt;/div&gt;" style="edgeLabel;html=1;align=center;verticalAlign=middle;resizable=0;points=[];" connectable="0" vertex="1" parent="NL7zXBZEc2TmMK268k_o-63">
          <mxGeometry x="-0.1239" y="-2" relative="1" as="geometry">
            <mxPoint x="-11" y="-18" as="offset" />
          </mxGeometry>
        </mxCell>
        <mxCell id="NL7zXBZEc2TmMK268k_o-65" value="&lt;div&gt;MainWindow&lt;/div&gt;&lt;div&gt;.compression&lt;br&gt;&lt;/div&gt;" style="shape=umlLifeline;perimeter=lifelinePerimeter;whiteSpace=wrap;html=1;container=0;dropTarget=0;collapsible=0;recursiveResize=0;outlineConnect=0;portConstraint=eastwest;newEdgeStyle={&quot;edgeStyle&quot;:&quot;elbowEdgeStyle&quot;,&quot;elbow&quot;:&quot;vertical&quot;,&quot;curved&quot;:0,&quot;rounded&quot;:0};fillColor=none;" vertex="1" parent="WIyWlLk6GJQsqaUBKTNV-1">
          <mxGeometry x="-290" y="135" width="100" height="985" as="geometry" />
        </mxCell>
        <mxCell id="NL7zXBZEc2TmMK268k_o-66" value="" style="endArrow=classic;html=1;rounded=0;" edge="1" parent="WIyWlLk6GJQsqaUBKTNV-1">
          <mxGeometry width="50" height="50" relative="1" as="geometry">
            <mxPoint x="-159.81999999999994" y="570" as="sourcePoint" />
            <mxPoint x="-240" y="570" as="targetPoint" />
          </mxGeometry>
        </mxCell>
        <mxCell id="NL7zXBZEc2TmMK268k_o-67" value="press" style="edgeLabel;html=1;align=center;verticalAlign=middle;resizable=0;points=[];" connectable="0" vertex="1" parent="NL7zXBZEc2TmMK268k_o-66">
          <mxGeometry x="-0.1239" y="-2" relative="1" as="geometry">
            <mxPoint x="5" y="-8" as="offset" />
          </mxGeometry>
        </mxCell>
        <mxCell id="NL7zXBZEc2TmMK268k_o-70" value="" style="endArrow=classic;html=1;rounded=0;" edge="1" parent="WIyWlLk6GJQsqaUBKTNV-1">
          <mxGeometry width="50" height="50" relative="1" as="geometry">
            <mxPoint x="-239.99818181818154" y="600" as="sourcePoint" />
            <mxPoint x="209.90999999999997" y="600" as="targetPoint" />
          </mxGeometry>
        </mxCell>
        <mxCell id="NL7zXBZEc2TmMK268k_o-71" value="performCompression()" style="edgeLabel;html=1;align=center;verticalAlign=middle;resizable=0;points=[];" connectable="0" vertex="1" parent="NL7zXBZEc2TmMK268k_o-70">
          <mxGeometry x="-0.7919" y="-1" relative="1" as="geometry">
            <mxPoint x="14" y="-11" as="offset" />
          </mxGeometry>
        </mxCell>
        <mxCell id="NL7zXBZEc2TmMK268k_o-72" value="" style="endArrow=classic;html=1;rounded=0;" edge="1" parent="WIyWlLk6GJQsqaUBKTNV-1">
          <mxGeometry width="50" height="50" relative="1" as="geometry">
            <mxPoint x="210.21014492753625" y="610" as="sourcePoint" />
            <mxPoint x="207.16666666666697" y="680" as="targetPoint" />
            <Array as="points">
              <mxPoint x="230" y="610" />
              <mxPoint x="230" y="680" />
            </Array>
          </mxGeometry>
        </mxCell>
        <mxCell id="NL7zXBZEc2TmMK268k_o-73" value="&lt;div&gt;Wait 0.6s&lt;/div&gt;" style="edgeLabel;html=1;align=center;verticalAlign=middle;resizable=0;points=[];rotation=90;" connectable="0" vertex="1" parent="NL7zXBZEc2TmMK268k_o-72">
          <mxGeometry x="-0.5084" y="2" relative="1" as="geometry">
            <mxPoint x="8" y="23" as="offset" />
          </mxGeometry>
        </mxCell>
        <mxCell id="NL7zXBZEc2TmMK268k_o-74" value="" style="endArrow=classic;html=1;rounded=0;" edge="1" parent="WIyWlLk6GJQsqaUBKTNV-1">
          <mxGeometry width="50" height="50" relative="1" as="geometry">
            <mxPoint x="209.5900000000005" y="320" as="sourcePoint" />
            <mxPoint x="140" y="320" as="targetPoint" />
          </mxGeometry>
        </mxCell>
        <mxCell id="NL7zXBZEc2TmMK268k_o-75" value="startCPR()" style="edgeLabel;html=1;align=center;verticalAlign=middle;resizable=0;points=[];" connectable="0" vertex="1" parent="NL7zXBZEc2TmMK268k_o-74">
          <mxGeometry x="-0.1239" y="-2" relative="1" as="geometry">
            <mxPoint x="-1" y="-8" as="offset" />
          </mxGeometry>
        </mxCell>
        <mxCell id="NL7zXBZEc2TmMK268k_o-76" value="" style="endArrow=classic;html=1;rounded=0;" edge="1" parent="WIyWlLk6GJQsqaUBKTNV-1">
          <mxGeometry width="50" height="50" relative="1" as="geometry">
            <mxPoint x="139.88014492753626" y="340" as="sourcePoint" />
            <mxPoint x="137.16666666666697" y="490" as="targetPoint" />
            <Array as="points">
              <mxPoint x="159.67000000000002" y="340" />
              <mxPoint x="160" y="490" />
              <mxPoint x="140" y="490" />
            </Array>
          </mxGeometry>
        </mxCell>
        <mxCell id="NL7zXBZEc2TmMK268k_o-77" value="&lt;div&gt;CPRTimer-&amp;gt;start()&lt;/div&gt;&lt;div&gt;CPRElaspedTimer-&amp;gt;start()&lt;/div&gt;&lt;div&gt;CPRElaspedIterationTimer-&amp;gt;start()&lt;br&gt;&lt;/div&gt;" style="edgeLabel;html=1;align=center;verticalAlign=middle;resizable=0;points=[];rotation=90;" connectable="0" vertex="1" parent="NL7zXBZEc2TmMK268k_o-76">
          <mxGeometry x="-0.5084" y="2" relative="1" as="geometry">
            <mxPoint x="28" y="43" as="offset" />
          </mxGeometry>
        </mxCell>
        <mxCell id="NL7zXBZEc2TmMK268k_o-78" value="" style="endArrow=classic;html=1;rounded=0;" edge="1" parent="WIyWlLk6GJQsqaUBKTNV-1">
          <mxGeometry width="50" height="50" relative="1" as="geometry">
            <mxPoint x="140.88014492753626" y="560" as="sourcePoint" />
            <mxPoint x="137.16666666666697" y="590" as="targetPoint" />
            <Array as="points">
              <mxPoint x="160" y="560" />
              <mxPoint x="160" y="590" />
            </Array>
          </mxGeometry>
        </mxCell>
        <mxCell id="NL7zXBZEc2TmMK268k_o-79" value="&lt;div&gt;Tick noise&lt;br&gt;&lt;/div&gt;&lt;div&gt;initiateSound()&lt;/div&gt;" style="edgeLabel;html=1;align=center;verticalAlign=middle;resizable=0;points=[];rotation=0;" connectable="0" vertex="1" parent="NL7zXBZEc2TmMK268k_o-78">
          <mxGeometry x="-0.5084" y="2" relative="1" as="geometry">
            <mxPoint x="42" y="12" as="offset" />
          </mxGeometry>
        </mxCell>
        <mxCell id="NL7zXBZEc2TmMK268k_o-80" value="&lt;div align=&quot;left&quot;&gt;While CPRElaspedIterationTimer-&amp;gt;Elasped() &amp;lt;= 10000&lt;/div&gt;" style="swimlane;whiteSpace=wrap;html=1;align=left;" vertex="1" parent="WIyWlLk6GJQsqaUBKTNV-1">
          <mxGeometry x="-350" y="510" width="760" height="510" as="geometry" />
        </mxCell>
        <mxCell id="NL7zXBZEc2TmMK268k_o-81" value="&amp;nbsp;Loop" style="html=1;shape=mxgraph.sysml.package;overflow=fill;labelX=95;align=left;spacingLeft=5;verticalAlign=top;spacingTop=-3;fillColor=none;" vertex="1" parent="NL7zXBZEc2TmMK268k_o-80">
          <mxGeometry x="10" y="30" width="720" height="200" as="geometry" />
        </mxCell>
        <mxCell id="NL7zXBZEc2TmMK268k_o-82" value="" style="endArrow=classic;html=1;rounded=0;" edge="1" parent="NL7zXBZEc2TmMK268k_o-80">
          <mxGeometry width="50" height="50" relative="1" as="geometry">
            <mxPoint x="740.05" y="330" as="sourcePoint" />
            <mxPoint x="559.9973684210524" y="330" as="targetPoint" />
          </mxGeometry>
        </mxCell>
        <mxCell id="NL7zXBZEc2TmMK268k_o-83" value="&lt;div&gt;Good Compressions&lt;/div&gt;&lt;div&gt;(initiateTextInstruction())&lt;br&gt;&lt;/div&gt;" style="edgeLabel;html=1;align=center;verticalAlign=middle;resizable=0;points=[];" connectable="0" vertex="1" parent="NL7zXBZEc2TmMK268k_o-82">
          <mxGeometry x="-0.4186" y="-2" relative="1" as="geometry">
            <mxPoint x="-37" y="-18" as="offset" />
          </mxGeometry>
        </mxCell>
        <mxCell id="NL7zXBZEc2TmMK268k_o-90" value="&lt;font style=&quot;font-size: 10px;&quot;&gt;while iterations &amp;gt; 0&lt;/font&gt;" style="text;html=1;align=center;verticalAlign=middle;resizable=0;points=[];autosize=1;strokeColor=none;fillColor=none;" vertex="1" parent="NL7zXBZEc2TmMK268k_o-80">
          <mxGeometry x="100" y="20" width="110" height="30" as="geometry" />
        </mxCell>
        <mxCell id="NL7zXBZEc2TmMK268k_o-91" value="" style="endArrow=classic;html=1;rounded=0;" edge="1" parent="NL7zXBZEc2TmMK268k_o-80">
          <mxGeometry width="50" height="50" relative="1" as="geometry">
            <mxPoint x="490.88014492753626" y="180" as="sourcePoint" />
            <mxPoint x="487.16666666666697" y="210" as="targetPoint" />
            <Array as="points">
              <mxPoint x="510" y="180" />
              <mxPoint x="510" y="210" />
            </Array>
          </mxGeometry>
        </mxCell>
        <mxCell id="NL7zXBZEc2TmMK268k_o-92" value="iterations--" style="edgeLabel;html=1;align=center;verticalAlign=middle;resizable=0;points=[];rotation=90;" connectable="0" vertex="1" parent="NL7zXBZEc2TmMK268k_o-91">
          <mxGeometry x="-0.5084" y="2" relative="1" as="geometry">
            <mxPoint x="11" y="22" as="offset" />
          </mxGeometry>
        </mxCell>
        <mxCell id="NL7zXBZEc2TmMK268k_o-93" value="&amp;nbsp; Compressions" style="html=1;shape=mxgraph.sysml.package;overflow=fill;labelX=95;align=left;spacingLeft=5;verticalAlign=top;spacingTop=-3;fillColor=none;" vertex="1" parent="NL7zXBZEc2TmMK268k_o-80">
          <mxGeometry x="360" y="250" width="395" height="220" as="geometry" />
        </mxCell>
        <mxCell id="NL7zXBZEc2TmMK268k_o-95" value="[Compression timing + quality good]" style="text;html=1;align=center;verticalAlign=middle;resizable=0;points=[];autosize=1;strokeColor=none;fillColor=none;" vertex="1" parent="NL7zXBZEc2TmMK268k_o-80">
          <mxGeometry x="355" y="278" width="210" height="30" as="geometry" />
        </mxCell>
        <mxCell id="NL7zXBZEc2TmMK268k_o-96" value="" style="endArrow=classic;html=1;rounded=0;" edge="1" parent="NL7zXBZEc2TmMK268k_o-80">
          <mxGeometry width="50" height="50" relative="1" as="geometry">
            <mxPoint x="740.05" y="390" as="sourcePoint" />
            <mxPoint x="559.9973684210524" y="390" as="targetPoint" />
          </mxGeometry>
        </mxCell>
        <mxCell id="NL7zXBZEc2TmMK268k_o-97" value="Adjust timing&lt;br&gt;&lt;div&gt;(initiateTextInstruction())&lt;br&gt;&lt;/div&gt;" style="edgeLabel;html=1;align=center;verticalAlign=middle;resizable=0;points=[];" connectable="0" vertex="1" parent="NL7zXBZEc2TmMK268k_o-96">
          <mxGeometry x="-0.4186" y="-2" relative="1" as="geometry">
            <mxPoint x="-37" y="-18" as="offset" />
          </mxGeometry>
        </mxCell>
        <mxCell id="NL7zXBZEc2TmMK268k_o-98" value="[else if compression quality good]" style="text;html=1;align=center;verticalAlign=middle;resizable=0;points=[];autosize=1;strokeColor=none;fillColor=none;" vertex="1" parent="NL7zXBZEc2TmMK268k_o-80">
          <mxGeometry x="365" y="340" width="200" height="30" as="geometry" />
        </mxCell>
        <mxCell id="NL7zXBZEc2TmMK268k_o-99" value="[else]" style="text;html=1;align=center;verticalAlign=middle;resizable=0;points=[];autosize=1;strokeColor=none;fillColor=none;" vertex="1" parent="NL7zXBZEc2TmMK268k_o-80">
          <mxGeometry x="510" y="400" width="50" height="30" as="geometry" />
        </mxCell>
        <mxCell id="NL7zXBZEc2TmMK268k_o-100" value="" style="endArrow=classic;html=1;rounded=0;" edge="1" parent="NL7zXBZEc2TmMK268k_o-80">
          <mxGeometry width="50" height="50" relative="1" as="geometry">
            <mxPoint x="740.05" y="450" as="sourcePoint" />
            <mxPoint x="559.9973684210524" y="450" as="targetPoint" />
          </mxGeometry>
        </mxCell>
        <mxCell id="NL7zXBZEc2TmMK268k_o-101" value="Push Harder&lt;br&gt;&lt;div&gt;(initiateTextInstruction())&lt;br&gt;&lt;/div&gt;" style="edgeLabel;html=1;align=center;verticalAlign=middle;resizable=0;points=[];" connectable="0" vertex="1" parent="NL7zXBZEc2TmMK268k_o-100">
          <mxGeometry x="-0.4186" y="-2" relative="1" as="geometry">
            <mxPoint x="-37" y="-18" as="offset" />
          </mxGeometry>
        </mxCell>
        <mxCell id="NL7zXBZEc2TmMK268k_o-84" value="" style="endArrow=classic;html=1;rounded=0;" edge="1" parent="WIyWlLk6GJQsqaUBKTNV-1">
          <mxGeometry width="50" height="50" relative="1" as="geometry">
            <mxPoint x="390.09000000000003" y="1080" as="sourcePoint" />
            <mxPoint x="209.9135294117649" y="1080" as="targetPoint" />
          </mxGeometry>
        </mxCell>
        <mxCell id="NL7zXBZEc2TmMK268k_o-85" value="&lt;div&gt;Patient Unresponsive Await EMS&lt;br&gt;&lt;/div&gt;&lt;div&gt;(initiateAudioAndTextInstruction())&lt;/div&gt;" style="edgeLabel;html=1;align=center;verticalAlign=middle;resizable=0;points=[];" connectable="0" vertex="1" parent="NL7zXBZEc2TmMK268k_o-84">
          <mxGeometry x="-0.1239" y="-2" relative="1" as="geometry">
            <mxPoint x="-11" y="-18" as="offset" />
          </mxGeometry>
        </mxCell>
      </root>
    </mxGraphModel>
  </diagram>
</mxfile>
